<mxfile host="Electron" agent="Mozilla/5.0 (Windows NT 10.0; Win64; x64) AppleWebKit/537.36 (KHTML, like Gecko) draw.io/26.2.2 Chrome/134.0.6998.178 Electron/35.1.2 Safari/537.36" version="26.2.2">
  <diagram id="opj-drgV3lybiYYwfv0Y" name="Page-1">
    <mxGraphModel dx="1092" dy="993" grid="1" gridSize="10" guides="1" tooltips="1" connect="1" arrows="1" fold="1" page="1" pageScale="1" pageWidth="850" pageHeight="1100" math="0" shadow="0">
      <root>
        <mxCell id="0" />
        <mxCell id="1" parent="0" />
        <mxCell id="FACe137tZp1rDgbuSHm2-31" value="" style="rounded=0;whiteSpace=wrap;html=1;" parent="1" vertex="1">
          <mxGeometry x="170" y="450" width="190" height="80" as="geometry" />
        </mxCell>
        <mxCell id="FACe137tZp1rDgbuSHm2-30" value="" style="rounded=0;whiteSpace=wrap;html=1;" parent="1" vertex="1">
          <mxGeometry x="170" y="370" width="190" height="80" as="geometry" />
        </mxCell>
        <mxCell id="FACe137tZp1rDgbuSHm2-3" value="" style="group" parent="1" vertex="1" connectable="0">
          <mxGeometry x="240" y="120" width="70" height="30" as="geometry" />
        </mxCell>
        <mxCell id="FACe137tZp1rDgbuSHm2-1" value="5" style="rounded=0;whiteSpace=wrap;html=1;" parent="FACe137tZp1rDgbuSHm2-3" vertex="1">
          <mxGeometry x="40" width="30" height="30" as="geometry" />
        </mxCell>
        <mxCell id="FACe137tZp1rDgbuSHm2-2" value="a" style="text;html=1;strokeColor=none;fillColor=none;align=center;verticalAlign=middle;whiteSpace=wrap;rounded=0;" parent="FACe137tZp1rDgbuSHm2-3" vertex="1">
          <mxGeometry y="5" width="40" height="20" as="geometry" />
        </mxCell>
        <mxCell id="FACe137tZp1rDgbuSHm2-4" value="" style="group" parent="1" vertex="1" connectable="0">
          <mxGeometry x="240" y="160" width="70" height="30" as="geometry" />
        </mxCell>
        <mxCell id="FACe137tZp1rDgbuSHm2-5" value="5" style="rounded=0;whiteSpace=wrap;html=1;" parent="FACe137tZp1rDgbuSHm2-4" vertex="1">
          <mxGeometry x="40" width="30" height="30" as="geometry" />
        </mxCell>
        <mxCell id="FACe137tZp1rDgbuSHm2-6" value="b" style="text;html=1;strokeColor=none;fillColor=none;align=center;verticalAlign=middle;whiteSpace=wrap;rounded=0;" parent="FACe137tZp1rDgbuSHm2-4" vertex="1">
          <mxGeometry y="5" width="40" height="20" as="geometry" />
        </mxCell>
        <mxCell id="FACe137tZp1rDgbuSHm2-9" value="" style="group" parent="1" vertex="1" connectable="0">
          <mxGeometry x="240" y="230" width="70" height="30" as="geometry" />
        </mxCell>
        <mxCell id="FACe137tZp1rDgbuSHm2-10" value="5" style="rounded=0;whiteSpace=wrap;html=1;" parent="FACe137tZp1rDgbuSHm2-9" vertex="1">
          <mxGeometry x="40" width="30" height="30" as="geometry" />
        </mxCell>
        <mxCell id="FACe137tZp1rDgbuSHm2-11" value="a" style="text;html=1;strokeColor=none;fillColor=none;align=center;verticalAlign=middle;whiteSpace=wrap;rounded=0;" parent="FACe137tZp1rDgbuSHm2-9" vertex="1">
          <mxGeometry y="5" width="40" height="20" as="geometry" />
        </mxCell>
        <mxCell id="FACe137tZp1rDgbuSHm2-12" value="" style="group" parent="1" vertex="1" connectable="0">
          <mxGeometry x="240" y="270" width="70" height="30" as="geometry" />
        </mxCell>
        <mxCell id="FACe137tZp1rDgbuSHm2-13" value="" style="rounded=0;whiteSpace=wrap;html=1;" parent="FACe137tZp1rDgbuSHm2-12" vertex="1">
          <mxGeometry x="50" y="10" width="10" height="10" as="geometry" />
        </mxCell>
        <mxCell id="FACe137tZp1rDgbuSHm2-14" value="b" style="text;html=1;strokeColor=none;fillColor=none;align=center;verticalAlign=middle;whiteSpace=wrap;rounded=0;" parent="FACe137tZp1rDgbuSHm2-12" vertex="1">
          <mxGeometry y="5" width="40" height="20" as="geometry" />
        </mxCell>
        <mxCell id="FACe137tZp1rDgbuSHm2-16" value="" style="endArrow=classic;html=1;entryX=1;entryY=0.5;entryDx=0;entryDy=0;edgeStyle=orthogonalEdgeStyle;curved=1;exitX=0.5;exitY=0.533;exitDx=0;exitDy=0;exitPerimeter=0;" parent="1" source="FACe137tZp1rDgbuSHm2-13" target="FACe137tZp1rDgbuSHm2-10" edge="1">
          <mxGeometry width="50" height="50" relative="1" as="geometry">
            <mxPoint x="310" y="280" as="sourcePoint" />
            <mxPoint x="360" y="230" as="targetPoint" />
            <Array as="points">
              <mxPoint x="340" y="286" />
              <mxPoint x="340" y="245" />
            </Array>
          </mxGeometry>
        </mxCell>
        <mxCell id="FACe137tZp1rDgbuSHm2-22" value="" style="group" parent="1" vertex="1" connectable="0">
          <mxGeometry x="230" y="400" width="110" height="30" as="geometry" />
        </mxCell>
        <mxCell id="FACe137tZp1rDgbuSHm2-23" value="5" style="rounded=0;whiteSpace=wrap;html=1;" parent="FACe137tZp1rDgbuSHm2-22" vertex="1">
          <mxGeometry x="40" width="70" height="30" as="geometry" />
        </mxCell>
        <mxCell id="FACe137tZp1rDgbuSHm2-24" value="number" style="text;html=1;strokeColor=none;fillColor=none;align=center;verticalAlign=middle;whiteSpace=wrap;rounded=0;" parent="FACe137tZp1rDgbuSHm2-22" vertex="1">
          <mxGeometry x="-20" y="5" width="60" height="20" as="geometry" />
        </mxCell>
        <mxCell id="FACe137tZp1rDgbuSHm2-29" value="&lt;i&gt;main stack frame&lt;/i&gt;" style="text;html=1;strokeColor=none;fillColor=none;align=left;verticalAlign=middle;whiteSpace=wrap;rounded=0;" parent="1" vertex="1">
          <mxGeometry x="170" y="370" width="190" height="20" as="geometry" />
        </mxCell>
        <mxCell id="FACe137tZp1rDgbuSHm2-32" value="" style="group" parent="1" vertex="1" connectable="0">
          <mxGeometry x="230" y="480" width="110" height="30" as="geometry" />
        </mxCell>
        <mxCell id="FACe137tZp1rDgbuSHm2-33" value="5" style="rounded=0;whiteSpace=wrap;html=1;" parent="FACe137tZp1rDgbuSHm2-32" vertex="1">
          <mxGeometry x="40" width="70" height="30" as="geometry" />
        </mxCell>
        <mxCell id="FACe137tZp1rDgbuSHm2-34" value="x" style="text;html=1;strokeColor=none;fillColor=none;align=center;verticalAlign=middle;whiteSpace=wrap;rounded=0;" parent="FACe137tZp1rDgbuSHm2-32" vertex="1">
          <mxGeometry x="-20" y="5" width="60" height="20" as="geometry" />
        </mxCell>
        <mxCell id="FACe137tZp1rDgbuSHm2-36" value="&lt;i&gt;add stack frame&lt;/i&gt;" style="text;html=1;strokeColor=none;fillColor=none;align=left;verticalAlign=middle;whiteSpace=wrap;rounded=0;" parent="1" vertex="1">
          <mxGeometry x="170" y="450" width="190" height="20" as="geometry" />
        </mxCell>
        <mxCell id="FACe137tZp1rDgbuSHm2-37" value="" style="rounded=0;whiteSpace=wrap;html=1;" parent="1" vertex="1">
          <mxGeometry x="170" y="650" width="190" height="80" as="geometry" />
        </mxCell>
        <mxCell id="FACe137tZp1rDgbuSHm2-38" value="" style="rounded=0;whiteSpace=wrap;html=1;" parent="1" vertex="1">
          <mxGeometry x="170" y="570" width="190" height="80" as="geometry" />
        </mxCell>
        <mxCell id="FACe137tZp1rDgbuSHm2-39" value="" style="group" parent="1" vertex="1" connectable="0">
          <mxGeometry x="230" y="600" width="110" height="30" as="geometry" />
        </mxCell>
        <mxCell id="FACe137tZp1rDgbuSHm2-40" value="5" style="rounded=0;whiteSpace=wrap;html=1;" parent="FACe137tZp1rDgbuSHm2-39" vertex="1">
          <mxGeometry x="40" width="70" height="30" as="geometry" />
        </mxCell>
        <mxCell id="FACe137tZp1rDgbuSHm2-41" value="number" style="text;html=1;strokeColor=none;fillColor=none;align=center;verticalAlign=middle;whiteSpace=wrap;rounded=0;" parent="FACe137tZp1rDgbuSHm2-39" vertex="1">
          <mxGeometry x="-20" y="5" width="60" height="20" as="geometry" />
        </mxCell>
        <mxCell id="FACe137tZp1rDgbuSHm2-42" value="&lt;i&gt;main stack frame&lt;/i&gt;" style="text;html=1;strokeColor=none;fillColor=none;align=left;verticalAlign=middle;whiteSpace=wrap;rounded=0;" parent="1" vertex="1">
          <mxGeometry x="170" y="570" width="190" height="20" as="geometry" />
        </mxCell>
        <mxCell id="FACe137tZp1rDgbuSHm2-43" value="" style="group" parent="1" vertex="1" connectable="0">
          <mxGeometry x="230" y="680" width="110" height="30" as="geometry" />
        </mxCell>
        <mxCell id="FACe137tZp1rDgbuSHm2-45" value="x" style="text;html=1;strokeColor=none;fillColor=none;align=center;verticalAlign=middle;whiteSpace=wrap;rounded=0;" parent="FACe137tZp1rDgbuSHm2-43" vertex="1">
          <mxGeometry x="-20" y="5" width="60" height="20" as="geometry" />
        </mxCell>
        <mxCell id="FACe137tZp1rDgbuSHm2-46" value="&lt;i&gt;add stack frame&lt;/i&gt;" style="text;html=1;strokeColor=none;fillColor=none;align=left;verticalAlign=middle;whiteSpace=wrap;rounded=0;" parent="1" vertex="1">
          <mxGeometry x="170" y="650" width="190" height="20" as="geometry" />
        </mxCell>
        <mxCell id="FACe137tZp1rDgbuSHm2-48" value="" style="rounded=0;whiteSpace=wrap;html=1;" parent="1" vertex="1">
          <mxGeometry x="300" y="693" width="10" height="10" as="geometry" />
        </mxCell>
        <mxCell id="FACe137tZp1rDgbuSHm2-49" value="" style="endArrow=classic;html=1;entryX=0.75;entryY=1;entryDx=0;entryDy=0;edgeStyle=orthogonalEdgeStyle;curved=1;exitX=0.5;exitY=0.533;exitDx=0;exitDy=0;exitPerimeter=0;" parent="1" source="FACe137tZp1rDgbuSHm2-48" target="FACe137tZp1rDgbuSHm2-40" edge="1">
          <mxGeometry width="50" height="50" relative="1" as="geometry">
            <mxPoint x="320" y="693" as="sourcePoint" />
            <mxPoint x="320" y="657.9999999999999" as="targetPoint" />
            <Array as="points">
              <mxPoint x="323" y="698" />
              <mxPoint x="323" y="670" />
              <mxPoint x="323" y="670" />
            </Array>
          </mxGeometry>
        </mxCell>
      </root>
    </mxGraphModel>
  </diagram>
</mxfile>
